<mxfile host="app.diagrams.net" modified="2024-02-26T12:29:39.122Z" agent="Mozilla/5.0 (Windows NT 10.0; Win64; x64) AppleWebKit/537.36 (KHTML, like Gecko) Chrome/122.0.0.0 Safari/537.36 Edg/122.0.0.0" etag="hGg3YXCvhk2Gc04tnmlW" version="23.1.6" type="device">
  <diagram name="Page-1" id="Od_B4N95j4dB3vnnrR0T">
    <mxGraphModel dx="1155" dy="633" grid="1" gridSize="10" guides="1" tooltips="1" connect="1" arrows="1" fold="1" page="1" pageScale="1" pageWidth="850" pageHeight="1100" math="0" shadow="0">
      <root>
        <mxCell id="0" />
        <mxCell id="1" parent="0" />
        <mxCell id="K8CE0xQ4ci1OpRUCyy1M-3" style="edgeStyle=orthogonalEdgeStyle;rounded=0;orthogonalLoop=1;jettySize=auto;html=1;entryX=0.5;entryY=0;entryDx=0;entryDy=0;strokeWidth=3;" edge="1" parent="1" source="K8CE0xQ4ci1OpRUCyy1M-1" target="K8CE0xQ4ci1OpRUCyy1M-2">
          <mxGeometry relative="1" as="geometry" />
        </mxCell>
        <mxCell id="K8CE0xQ4ci1OpRUCyy1M-1" value="&lt;b&gt;&lt;font style=&quot;font-size: 18px;&quot;&gt;Start&lt;/font&gt;&lt;/b&gt;" style="ellipse;whiteSpace=wrap;html=1;fillColor=#f8cecc;strokeColor=#000000;strokeWidth=2;" vertex="1" parent="1">
          <mxGeometry x="220" y="120" width="120" height="80" as="geometry" />
        </mxCell>
        <mxCell id="K8CE0xQ4ci1OpRUCyy1M-6" style="edgeStyle=orthogonalEdgeStyle;rounded=0;orthogonalLoop=1;jettySize=auto;html=1;entryX=0.5;entryY=0;entryDx=0;entryDy=0;strokeWidth=3;" edge="1" parent="1" source="K8CE0xQ4ci1OpRUCyy1M-2" target="K8CE0xQ4ci1OpRUCyy1M-5">
          <mxGeometry relative="1" as="geometry" />
        </mxCell>
        <mxCell id="K8CE0xQ4ci1OpRUCyy1M-2" value="&lt;font style=&quot;font-size: 13px;&quot;&gt;&lt;b&gt;unsigned char = M;&lt;/b&gt; (&lt;i&gt;multiplicand)&lt;/i&gt;&lt;br&gt;&lt;b&gt;unsigned char = Q;&lt;/b&gt; (&lt;i&gt;multiplier)&lt;br&gt;&lt;/i&gt;&lt;b&gt;unsigned char = Q_1;&lt;/b&gt; (&lt;i&gt;Qn-1&lt;/i&gt;)&lt;br&gt;&lt;b&gt;unsigned char = A;&lt;/b&gt; (&lt;i&gt;accumulator&lt;/i&gt;)&lt;br&gt;&lt;b&gt;int = count&lt;/b&gt; (number of bits)&lt;br&gt;&lt;/font&gt;" style="rounded=0;whiteSpace=wrap;html=1;strokeWidth=2;fillColor=#dae8fc;strokeColor=#000000;" vertex="1" parent="1">
          <mxGeometry x="170" y="290" width="220" height="120" as="geometry" />
        </mxCell>
        <mxCell id="K8CE0xQ4ci1OpRUCyy1M-9" style="edgeStyle=orthogonalEdgeStyle;rounded=0;orthogonalLoop=1;jettySize=auto;html=1;strokeWidth=3;" edge="1" parent="1" source="K8CE0xQ4ci1OpRUCyy1M-5" target="K8CE0xQ4ci1OpRUCyy1M-8">
          <mxGeometry relative="1" as="geometry" />
        </mxCell>
        <mxCell id="K8CE0xQ4ci1OpRUCyy1M-5" value="&lt;i&gt;&lt;font style=&quot;font-size: 14px;&quot;&gt;&lt;b&gt;while(cnt != 0)&lt;/b&gt;&lt;/font&gt;&lt;/i&gt;" style="rhombus;whiteSpace=wrap;html=1;strokeWidth=2;fillColor=#fff2cc;strokeColor=#000000;" vertex="1" parent="1">
          <mxGeometry x="206.25" y="530" width="147.5" height="160" as="geometry" />
        </mxCell>
        <mxCell id="K8CE0xQ4ci1OpRUCyy1M-13" style="edgeStyle=orthogonalEdgeStyle;rounded=0;orthogonalLoop=1;jettySize=auto;html=1;entryX=0.5;entryY=0;entryDx=0;entryDy=0;strokeWidth=3;" edge="1" parent="1" source="K8CE0xQ4ci1OpRUCyy1M-8" target="K8CE0xQ4ci1OpRUCyy1M-10">
          <mxGeometry relative="1" as="geometry" />
        </mxCell>
        <mxCell id="K8CE0xQ4ci1OpRUCyy1M-16" style="edgeStyle=orthogonalEdgeStyle;rounded=0;orthogonalLoop=1;jettySize=auto;html=1;strokeWidth=3;" edge="1" parent="1" source="K8CE0xQ4ci1OpRUCyy1M-8" target="K8CE0xQ4ci1OpRUCyy1M-15">
          <mxGeometry relative="1" as="geometry" />
        </mxCell>
        <mxCell id="K8CE0xQ4ci1OpRUCyy1M-8" value="&lt;i&gt;&lt;font style=&quot;font-size: 13px;&quot;&gt;&lt;b&gt;Q == 0 &amp;amp;&amp;amp; Q_1 == 1&lt;/b&gt;&lt;/font&gt;&lt;/i&gt;" style="rhombus;whiteSpace=wrap;html=1;strokeWidth=2;fillColor=#fff2cc;strokeColor=#000000;" vertex="1" parent="1">
          <mxGeometry x="202.5" y="770" width="155" height="170" as="geometry" />
        </mxCell>
        <mxCell id="K8CE0xQ4ci1OpRUCyy1M-14" style="edgeStyle=orthogonalEdgeStyle;rounded=0;orthogonalLoop=1;jettySize=auto;html=1;entryX=0.5;entryY=0;entryDx=0;entryDy=0;strokeWidth=3;" edge="1" parent="1" source="K8CE0xQ4ci1OpRUCyy1M-10" target="K8CE0xQ4ci1OpRUCyy1M-11">
          <mxGeometry relative="1" as="geometry" />
        </mxCell>
        <mxCell id="K8CE0xQ4ci1OpRUCyy1M-18" style="edgeStyle=orthogonalEdgeStyle;rounded=0;orthogonalLoop=1;jettySize=auto;html=1;entryX=0;entryY=0.5;entryDx=0;entryDy=0;strokeWidth=2;" edge="1" parent="1" source="K8CE0xQ4ci1OpRUCyy1M-10" target="K8CE0xQ4ci1OpRUCyy1M-17">
          <mxGeometry relative="1" as="geometry" />
        </mxCell>
        <mxCell id="K8CE0xQ4ci1OpRUCyy1M-10" value="&lt;i&gt;&lt;font style=&quot;font-size: 13px;&quot;&gt;&lt;b&gt;Q == 1 &amp;amp;&amp;amp; Q_1 == 0&lt;/b&gt;&lt;/font&gt;&lt;/i&gt;" style="rhombus;whiteSpace=wrap;html=1;strokeWidth=2;fillColor=#fff2cc;strokeColor=#000000;" vertex="1" parent="1">
          <mxGeometry x="202.5" y="1030" width="155" height="170" as="geometry" />
        </mxCell>
        <mxCell id="K8CE0xQ4ci1OpRUCyy1M-23" style="edgeStyle=orthogonalEdgeStyle;rounded=0;orthogonalLoop=1;jettySize=auto;html=1;strokeWidth=3;" edge="1" parent="1" source="K8CE0xQ4ci1OpRUCyy1M-11" target="K8CE0xQ4ci1OpRUCyy1M-22">
          <mxGeometry relative="1" as="geometry" />
        </mxCell>
        <mxCell id="K8CE0xQ4ci1OpRUCyy1M-11" value="&lt;i&gt;&lt;font style=&quot;font-size: 13px;&quot;&gt;&lt;b&gt;Q == 0 &amp;amp;&amp;amp; Q_1 == 0&lt;/b&gt;&lt;/font&gt;&lt;/i&gt;" style="rhombus;whiteSpace=wrap;html=1;strokeWidth=2;fillColor=#fff2cc;strokeColor=#000000;" vertex="1" parent="1">
          <mxGeometry x="202.5" y="1300" width="155" height="170" as="geometry" />
        </mxCell>
        <mxCell id="K8CE0xQ4ci1OpRUCyy1M-30" style="edgeStyle=orthogonalEdgeStyle;rounded=0;orthogonalLoop=1;jettySize=auto;html=1;entryX=0.5;entryY=0;entryDx=0;entryDy=0;strokeWidth=3;" edge="1" parent="1" source="K8CE0xQ4ci1OpRUCyy1M-15" target="K8CE0xQ4ci1OpRUCyy1M-26">
          <mxGeometry relative="1" as="geometry" />
        </mxCell>
        <mxCell id="K8CE0xQ4ci1OpRUCyy1M-15" value="&lt;font style=&quot;font-size: 20px;&quot;&gt;&lt;b&gt;A = A+M&lt;/b&gt;&lt;/font&gt;" style="shape=parallelogram;perimeter=parallelogramPerimeter;whiteSpace=wrap;html=1;fixedSize=1;strokeWidth=2;fillColor=#f5f5f5;fontColor=#333333;strokeColor=#000000;" vertex="1" parent="1">
          <mxGeometry x="560" y="797.5" width="250" height="115" as="geometry" />
        </mxCell>
        <mxCell id="K8CE0xQ4ci1OpRUCyy1M-28" style="edgeStyle=orthogonalEdgeStyle;rounded=0;orthogonalLoop=1;jettySize=auto;html=1;entryX=0.5;entryY=0;entryDx=0;entryDy=0;strokeWidth=3;" edge="1" parent="1" source="K8CE0xQ4ci1OpRUCyy1M-17" target="K8CE0xQ4ci1OpRUCyy1M-26">
          <mxGeometry relative="1" as="geometry" />
        </mxCell>
        <mxCell id="K8CE0xQ4ci1OpRUCyy1M-17" value="&lt;font style=&quot;font-size: 17px;&quot;&gt;&lt;b&gt;M = twosComplement(M)&lt;br&gt;A = A+M&lt;/b&gt;&lt;/font&gt;" style="shape=parallelogram;perimeter=parallelogramPerimeter;whiteSpace=wrap;html=1;fixedSize=1;strokeWidth=2;fillColor=#f5f5f5;fontColor=#333333;strokeColor=#000000;" vertex="1" parent="1">
          <mxGeometry x="550" y="1057.5" width="250" height="115" as="geometry" />
        </mxCell>
        <mxCell id="K8CE0xQ4ci1OpRUCyy1M-19" value="&lt;font style=&quot;font-size: 20px;&quot;&gt;&lt;b&gt;Y&lt;/b&gt;&lt;/font&gt;" style="text;html=1;align=center;verticalAlign=middle;resizable=0;points=[];autosize=1;strokeColor=none;fillColor=none;" vertex="1" parent="1">
          <mxGeometry x="420" y="810" width="40" height="40" as="geometry" />
        </mxCell>
        <mxCell id="K8CE0xQ4ci1OpRUCyy1M-20" value="&lt;font style=&quot;font-size: 20px;&quot;&gt;&lt;b&gt;Y&lt;/b&gt;&lt;/font&gt;" style="text;html=1;align=center;verticalAlign=middle;resizable=0;points=[];autosize=1;strokeColor=none;fillColor=none;" vertex="1" parent="1">
          <mxGeometry x="420" y="1070" width="40" height="40" as="geometry" />
        </mxCell>
        <mxCell id="K8CE0xQ4ci1OpRUCyy1M-21" value="&lt;font style=&quot;font-size: 20px;&quot;&gt;&lt;b&gt;Y&lt;/b&gt;&lt;/font&gt;" style="text;html=1;align=center;verticalAlign=middle;resizable=0;points=[];autosize=1;strokeColor=none;fillColor=none;" vertex="1" parent="1">
          <mxGeometry x="420" y="1340" width="40" height="40" as="geometry" />
        </mxCell>
        <mxCell id="K8CE0xQ4ci1OpRUCyy1M-27" style="edgeStyle=orthogonalEdgeStyle;rounded=0;orthogonalLoop=1;jettySize=auto;html=1;entryX=0;entryY=0.5;entryDx=0;entryDy=0;strokeWidth=3;" edge="1" parent="1" source="K8CE0xQ4ci1OpRUCyy1M-22" target="K8CE0xQ4ci1OpRUCyy1M-26">
          <mxGeometry relative="1" as="geometry" />
        </mxCell>
        <mxCell id="K8CE0xQ4ci1OpRUCyy1M-22" value="&lt;font style=&quot;font-size: 20px;&quot;&gt;&lt;b&gt;NOP&lt;/b&gt;&lt;/font&gt;" style="shape=parallelogram;perimeter=parallelogramPerimeter;whiteSpace=wrap;html=1;fixedSize=1;strokeWidth=2;fillColor=#f5f5f5;fontColor=#333333;strokeColor=#000000;" vertex="1" parent="1">
          <mxGeometry x="550" y="1327.5" width="250" height="115" as="geometry" />
        </mxCell>
        <mxCell id="K8CE0xQ4ci1OpRUCyy1M-34" style="edgeStyle=orthogonalEdgeStyle;rounded=0;orthogonalLoop=1;jettySize=auto;html=1;entryX=1;entryY=0.5;entryDx=0;entryDy=0;strokeWidth=3;" edge="1" parent="1" source="K8CE0xQ4ci1OpRUCyy1M-26" target="K8CE0xQ4ci1OpRUCyy1M-31">
          <mxGeometry relative="1" as="geometry">
            <Array as="points">
              <mxPoint x="1095" y="1648" />
            </Array>
          </mxGeometry>
        </mxCell>
        <mxCell id="K8CE0xQ4ci1OpRUCyy1M-26" value="&lt;span style=&quot;font-size: 20px;&quot;&gt;&lt;b&gt;A &amp;gt;&amp;gt; 1, Q &amp;gt;&amp;gt; 1,&lt;br&gt;Q_1 &amp;gt;&amp;gt; 1&lt;/b&gt;&lt;/span&gt;" style="shape=parallelogram;perimeter=parallelogramPerimeter;whiteSpace=wrap;html=1;fixedSize=1;strokeWidth=2;fillColor=#f5f5f5;fontColor=#333333;strokeColor=#000000;" vertex="1" parent="1">
          <mxGeometry x="970" y="1327.5" width="250" height="115" as="geometry" />
        </mxCell>
        <mxCell id="K8CE0xQ4ci1OpRUCyy1M-36" style="edgeStyle=orthogonalEdgeStyle;rounded=0;orthogonalLoop=1;jettySize=auto;html=1;entryX=1;entryY=0.5;entryDx=0;entryDy=0;strokeWidth=3;" edge="1" parent="1" source="K8CE0xQ4ci1OpRUCyy1M-31" target="K8CE0xQ4ci1OpRUCyy1M-35">
          <mxGeometry relative="1" as="geometry" />
        </mxCell>
        <mxCell id="K8CE0xQ4ci1OpRUCyy1M-31" value="&lt;span style=&quot;font-size: 20px;&quot;&gt;&lt;b&gt;cnt--;&lt;/b&gt;&lt;/span&gt;" style="shape=parallelogram;perimeter=parallelogramPerimeter;whiteSpace=wrap;html=1;fixedSize=1;strokeWidth=2;fillColor=#f5f5f5;fontColor=#333333;strokeColor=#000000;" vertex="1" parent="1">
          <mxGeometry x="550" y="1593" width="250" height="115" as="geometry" />
        </mxCell>
        <mxCell id="K8CE0xQ4ci1OpRUCyy1M-38" style="edgeStyle=orthogonalEdgeStyle;rounded=0;orthogonalLoop=1;jettySize=auto;html=1;entryX=0;entryY=0.5;entryDx=0;entryDy=0;exitX=0;exitY=0.5;exitDx=0;exitDy=0;strokeWidth=3;" edge="1" parent="1" source="K8CE0xQ4ci1OpRUCyy1M-35" target="K8CE0xQ4ci1OpRUCyy1M-5">
          <mxGeometry relative="1" as="geometry">
            <mxPoint x="163.9966666666666" y="1615.5731182795698" as="sourcePoint" />
            <mxPoint x="90.18" y="660" as="targetPoint" />
            <Array as="points">
              <mxPoint x="10" y="1650" />
              <mxPoint x="10" y="610" />
            </Array>
          </mxGeometry>
        </mxCell>
        <mxCell id="K8CE0xQ4ci1OpRUCyy1M-40" style="edgeStyle=orthogonalEdgeStyle;rounded=0;orthogonalLoop=1;jettySize=auto;html=1;entryX=0.5;entryY=0;entryDx=0;entryDy=0;strokeWidth=3;" edge="1" parent="1" source="K8CE0xQ4ci1OpRUCyy1M-35" target="K8CE0xQ4ci1OpRUCyy1M-39">
          <mxGeometry relative="1" as="geometry" />
        </mxCell>
        <mxCell id="K8CE0xQ4ci1OpRUCyy1M-35" value="&lt;i&gt;&lt;font style=&quot;font-size: 13px;&quot;&gt;&lt;b&gt;cnt == 0?&lt;/b&gt;&lt;/font&gt;&lt;/i&gt;" style="rhombus;whiteSpace=wrap;html=1;strokeWidth=2;fillColor=#fff2cc;strokeColor=#000000;" vertex="1" parent="1">
          <mxGeometry x="202.5" y="1565.5" width="155" height="170" as="geometry" />
        </mxCell>
        <mxCell id="K8CE0xQ4ci1OpRUCyy1M-46" style="edgeStyle=orthogonalEdgeStyle;rounded=0;orthogonalLoop=1;jettySize=auto;html=1;entryX=0.5;entryY=0;entryDx=0;entryDy=0;strokeWidth=3;" edge="1" parent="1" source="K8CE0xQ4ci1OpRUCyy1M-39" target="K8CE0xQ4ci1OpRUCyy1M-45">
          <mxGeometry relative="1" as="geometry" />
        </mxCell>
        <mxCell id="K8CE0xQ4ci1OpRUCyy1M-39" value="&lt;span style=&quot;font-size: 20px;&quot;&gt;&lt;b&gt;dispBin(A,16)&lt;/b&gt;&lt;/span&gt;" style="shape=parallelogram;perimeter=parallelogramPerimeter;whiteSpace=wrap;html=1;fixedSize=1;strokeWidth=2;fillColor=#f5f5f5;fontColor=#333333;strokeColor=#000000;" vertex="1" parent="1">
          <mxGeometry x="155" y="1840" width="250" height="115" as="geometry" />
        </mxCell>
        <mxCell id="K8CE0xQ4ci1OpRUCyy1M-41" value="&lt;font style=&quot;font-size: 20px;&quot;&gt;&lt;b&gt;Y&lt;/b&gt;&lt;/font&gt;" style="text;html=1;align=center;verticalAlign=middle;resizable=0;points=[];autosize=1;strokeColor=none;fillColor=none;" vertex="1" parent="1">
          <mxGeometry x="290" y="1770" width="40" height="40" as="geometry" />
        </mxCell>
        <mxCell id="K8CE0xQ4ci1OpRUCyy1M-42" value="&lt;font style=&quot;font-size: 20px;&quot;&gt;&lt;b&gt;N&lt;/b&gt;&lt;/font&gt;" style="text;html=1;align=center;verticalAlign=middle;resizable=0;points=[];autosize=1;strokeColor=none;fillColor=none;" vertex="1" parent="1">
          <mxGeometry x="220" y="1230" width="40" height="40" as="geometry" />
        </mxCell>
        <mxCell id="K8CE0xQ4ci1OpRUCyy1M-43" value="&lt;font style=&quot;font-size: 20px;&quot;&gt;&lt;b&gt;N&lt;/b&gt;&lt;/font&gt;" style="text;html=1;align=center;verticalAlign=middle;resizable=0;points=[];autosize=1;strokeColor=none;fillColor=none;" vertex="1" parent="1">
          <mxGeometry x="220" y="960" width="40" height="40" as="geometry" />
        </mxCell>
        <mxCell id="K8CE0xQ4ci1OpRUCyy1M-44" value="&lt;font style=&quot;font-size: 20px;&quot;&gt;&lt;b&gt;N&lt;/b&gt;&lt;/font&gt;" style="text;html=1;align=center;verticalAlign=middle;resizable=0;points=[];autosize=1;strokeColor=none;fillColor=none;" vertex="1" parent="1">
          <mxGeometry x="100" y="1600" width="40" height="40" as="geometry" />
        </mxCell>
        <mxCell id="K8CE0xQ4ci1OpRUCyy1M-45" value="&lt;b&gt;&lt;font style=&quot;font-size: 18px;&quot;&gt;END&lt;/font&gt;&lt;/b&gt;" style="ellipse;whiteSpace=wrap;html=1;fillColor=#f8cecc;strokeColor=#000000;strokeWidth=2;" vertex="1" parent="1">
          <mxGeometry x="220" y="2030" width="120" height="80" as="geometry" />
        </mxCell>
      </root>
    </mxGraphModel>
  </diagram>
</mxfile>
